<?xml version="1.0" encoding="UTF-8" standalone="no"?>
<svg
   width="184"
   height="60"
   viewBox="0 0 184 60"
   fill="none"
   version="1.1"
   id="svg37"
   sodipodi:docname="9a027990832a8f8babd6119ebb350366.svg"
   xmlns:inkscape="http://www.inkscape.org/namespaces/inkscape"
   xmlns:sodipodi="http://sodipodi.sourceforge.net/DTD/sodipodi-0.dtd"
   xmlns="http://www.w3.org/2000/svg"
   xmlns:svg="http://www.w3.org/2000/svg">
  <sodipodi:namedview
     id="namedview39"
     pagecolor="#ffffff"
     bordercolor="#666666"
     borderopacity="1.0"
     inkscape:pageshadow="2"
     inkscape:pageopacity="0.0"
     inkscape:pagecheckerboard="0" />
  <g
     filter="url(#filter0_d_62863_751)"
     id="g16">
    <path
       d="m 11.7653,23.3826 2.6454,-1.3088 4.1813,-6.2819 1.28,-0.5234 1.3654,6.3691 -1.792,0.2617 -1.3654,-2.6174 -1.024,4.1007 h 4.5227 l 4.6933,1.2214 1.8774,-1.2214 3.1573,3.3154 1.3653,-6.1074 2.2187,2.2685 1.3653,-1.9195 2.2187,-0.6107 3.2427,-3.0537 0.512,-1.4833 2.6453,0.4363 1.1094,1.4832 -1.9627,4.1879 4.864,-2.5302 v -1.2215 l 1.8773,-0.4362 2.048,2.094 2.048,-2.5302 v -1.745 l 3.328,-2.3557 1.3654,-2.0067 h 2.1333 L 65.4401,3.40268 68.6828,0 l 1.1946,1.91946 -1.8773,2.44296 0.6827,1.57047 1.792,0.34899 1.4506,6.45642 v 5.4093 l 2.56,3.5772 1.28,4.9732 -4.4373,-2.8792 -1.9627,-8.2886 -1.1947,0.2617 -0.1706,5.5839 -3.2427,5.3222 -0.9387,8.1141 2.2187,0.5235 0.9387,-1.1343 2.1333,2.443 1.6213,7.3289 -0.1706,4.7114 h -2.048 l -0.768,-6.6309 -1.4507,2.0067 -3.1573,-0.698 -2.56,-2.1812 -2.9014,1.047 0.1707,4.7114 -2.304,0.6107 -3.4133,2.6175 -4.096,-0.5235 -1.6214,-0.9597 -2.56,0.4362 0.8534,1.047 -2.048,1.2215 -1.6214,-0.7853 -3.072,1.396 -4.6933,-2.3557 -1.792,-4.1879 -1.536,0.1745 -1.792,-1.4832 -0.0854,-1.1343 -5.7173,-0.6107 -0.9387,3.1409 -3.584,-1.6577 -1.792,-3.0537 h -3.84 L 11.7653,45.7181 9.54667,46.4161 8.43734,50.8658 7.584,50.0805 4,40.745 8.26667,38.651 7.584,34.5503 6.90134,30.3624 8.77867,27.6577 8.18134,26 10.7413,23.2081 Z m 56.7468,10.2953 3.9253,5.9328 1.28,-0.5235 -1.6213,-2.4429 -3.584,-3.8389 z M 28.4054,21.6376 v -1.745 l 2.9866,-2.1812 2.56,-1.3087 h -2.9866 l -2.6454,1.5705 -1.6213,1.4832 v 2.1812 z"
       fill="#ffffff"
       id="path2" />
    <path
       d="m 93.8314,41.0004 h 4.7232 v -5.1818 h 2.6164 c 3.967,0 6.626,-2.3437 6.626,-6.1022 0,-3.716 -2.591,-6.1705 -6.456,-6.1705 h -7.5096 z m 4.7232,-8.8636 V 27.33 h 1.6654 c 1.656,0 2.65,0.8864 2.65,2.3864 0,1.4914 -0.994,2.4204 -2.65,2.4204 z"
       fill="#ffffff"
       id="path4" />
    <path
       d="m 115.604,41.2391 c 4.247,0 6.762,-2.7273 6.762,-6.75 0,-4.0227 -2.515,-6.75 -6.762,-6.75 -4.248,0 -6.762,2.7273 -6.762,6.75 0,4.0227 2.514,6.75 6.762,6.75 z m 0.034,-3.4773 c -1.257,0 -2.005,-1.2528 -2.005,-3.3068 0,-2.054 0.748,-3.3068 2.005,-3.3068 1.189,0 1.937,1.2528 1.937,3.3068 0,2.054 -0.748,3.3068 -1.937,3.3068 z"
       fill="#ffffff"
       id="path6" />
    <path
       d="m 130.555,41.2391 c 3.865,0 6.235,-2.2245 6.286,-5.6932 h -4.349 c -0.102,1.3722 -0.841,2.1136 -1.869,2.1136 -1.232,0 -2.039,-1.0568 -2.039,-3.2045 0,-2.1477 0.807,-3.2046 2.039,-3.2046 1.036,0 1.742,0.7415 1.869,2.1137 h 4.349 c -0.025,-3.4091 -2.446,-5.625 -6.286,-5.625 -4.247,0 -6.762,2.7273 -6.762,6.75 0,4.0227 2.515,6.75 6.762,6.75 z"
       fill="#ffffff"
       id="path8" />
    <path
       d="m 145.062,41.2391 c 3.866,0 6.236,-2.2245 6.287,-5.6932 h -4.35 c -0.102,1.3722 -0.841,2.1136 -1.869,2.1136 -1.231,0 -2.038,-1.0568 -2.038,-3.2045 0,-2.1477 0.807,-3.2046 2.038,-3.2046 1.037,0 1.742,0.7415 1.869,2.1137 h 4.35 c -0.026,-3.4091 -2.447,-5.625 -6.287,-5.625 -4.247,0 -6.762,2.7273 -6.762,6.75 0,4.0227 2.515,6.75 6.762,6.75 z"
       fill="#ffffff"
       id="path10" />
    <path
       d="m 157.701,35.0004 v -7.0909 h -4.418 v 13.0909 h 4.418 l 3.636,-7.125 v 7.125 h 4.417 V 27.9095 h -4.417 z"
       fill="#ffffff"
       id="path12" />
    <path
       d="M 175.651,41.0004 H 180 V 27.9095 h -6.116 c -3.764,0 -6.142,1.9091 -6.117,4.5682 -0.017,1.4915 0.875,2.7273 2.438,3.4602 l -2.574,5.0625 h 4.316 l 2.2,-4.3295 h 1.504 z m 0,-7.159 h -1.665 c -1.249,0 -1.827,-0.6137 -1.801,-1.1932 -0.026,-0.5455 0.518,-1.2273 1.699,-1.2273 h 1.767 z"
       fill="#ffffff"
       id="path14" />
  </g>
  <defs
     id="defs35">
    <filter
       id="filter0_d_62863_751"
       x="0"
       y="0"
       width="184"
       height="60"
       filterUnits="userSpaceOnUse"
       color-interpolation-filters="sRGB">
      <feFlood
         flood-opacity="0"
         result="BackgroundImageFix"
         id="feFlood18" />
      <feColorMatrix
         in="SourceAlpha"
         type="matrix"
         values="0 0 0 0 0 0 0 0 0 0 0 0 0 0 0 0 0 0 127 0"
         result="hardAlpha"
         id="feColorMatrix20" />
      <feOffset
         dy="4"
         id="feOffset22" />
      <feGaussianBlur
         stdDeviation="2"
         id="feGaussianBlur24" />
      <feComposite
         in2="hardAlpha"
         operator="out"
         id="feComposite26" />
      <feColorMatrix
         type="matrix"
         values="0 0 0 0 0 0 0 0 0 0 0 0 0 0 0 0 0 0 0.25 0"
         id="feColorMatrix28" />
      <feBlend
         mode="normal"
         in2="BackgroundImageFix"
         result="effect1_dropShadow_62863_751"
         id="feBlend30" />
      <feBlend
         mode="normal"
         in="SourceGraphic"
         in2="effect1_dropShadow_62863_751"
         result="shape"
         id="feBlend32" />
    </filter>
  </defs>
</svg>
